<svg width="273" height="373" viewBox="0 0 273 373" fill="none" xmlns="http://www.w3.org/2000/svg">
<path fill-rule="evenodd" clip-rule="evenodd" d="M236.095 153.483H253.761C263.904 153.483 272.161 161.722 272.161 171.882V354.428C272.161 364.588 263.905 372.826 253.762 372.826H19.065C8.90102 372.826 0.666016 364.588 0.666016 354.428V171.882C0.666016 161.722 8.90102 153.483 19.065 153.483H36.725V99.692C36.725 44.721 81.434 0 136.416 0C191.378 0 236.095 44.727 236.095 99.692V153.483ZM136.415 36.795C101.729 36.795 73.519 65.005 73.519 99.692V153.483H199.304V99.692C199.304 65.005 171.093 36.795 136.415 36.795ZM195.907 204.212L259.456 267.761C261.514 269.819 261.514 273.157 259.456 275.218L195.912 338.764C194.924 339.752 193.581 340.311 192.187 340.311C190.79 340.311 189.449 339.752 188.461 338.764L174.684 324.987C172.626 322.929 172.626 319.593 174.684 317.535L220.73 271.484L174.681 225.441C172.623 223.383 172.623 220.047 174.681 217.99L188.458 204.212C190.435 202.236 193.931 202.236 195.907 204.212ZM98.3137 317.535L52.2731 271.489L98.3216 225.446C99.3097 224.458 99.8656 223.12 99.8656 221.721C99.8656 220.324 99.3123 218.983 98.3216 217.995L84.5442 204.218C83.5561 203.229 82.215 202.674 80.8186 202.674C79.4221 202.674 78.081 203.229 77.093 204.218L13.5414 267.761C11.4836 269.819 11.4836 273.155 13.5414 275.215L77.0903 338.761C78.0784 339.749 79.4195 340.308 80.8159 340.308C82.2124 340.308 83.5535 339.749 84.5416 338.761L98.319 324.984C100.377 322.929 100.377 319.593 98.3137 317.535ZM169.501 180.299C170.839 180.694 171.967 181.606 172.636 182.833C173.306 184.059 173.456 185.5 173.061 186.841L121.21 362.435C120.533 364.73 118.433 366.216 116.159 366.216C115.667 366.216 115.163 366.145 114.665 365.997L103.496 362.701C102.158 362.303 101.028 361.394 100.361 360.164C99.6944 358.939 99.5415 357.498 99.9368 356.156L151.787 180.565C152.609 177.775 155.544 176.175 158.332 177.003L169.501 180.299Z" fill="url(#paint0_radial_16762_102629)"/>
<defs>
<radialGradient id="paint0_radial_16762_102629" cx="0" cy="0" r="1" gradientUnits="userSpaceOnUse" gradientTransform="translate(136 10.5) rotate(90) scale(486.5 354.273)">
<stop stop-color="#974EF2"/>
<stop offset="0.604167" stop-color="#9C59BB"/>
<stop offset="1" stop-color="#FFB171"/>
</radialGradient>
</defs>
</svg>
